<svg width="40" height="40" viewBox="0 0 40 40" fill="none" xmlns="http://www.w3.org/2000/svg">
<g filter="url(#filter0_d_3_1628)">
<rect x="8" y="8" width="24" height="24" rx="12" fill="white"/>
<path d="M20 21.3998L15.1 26.2998C14.9167 26.4831 14.6834 26.5748 14.4 26.5748C14.1167 26.5748 13.8834 26.4831 13.7 26.2998C13.5167 26.1165 13.425 25.8831 13.425 25.5998C13.425 25.3165 13.5167 25.0831 13.7 24.8998L18.6 19.9998L13.7 15.0998C13.5167 14.9165 13.425 14.6831 13.425 14.3998C13.425 14.1165 13.5167 13.8831 13.7 13.6998C13.8834 13.5165 14.1167 13.4248 14.4 13.4248C14.6834 13.4248 14.9167 13.5165 15.1 13.6998L20 18.5998L24.9 13.6998C25.0834 13.5165 25.3167 13.4248 25.6 13.4248C25.8834 13.4248 26.1167 13.5165 26.3 13.6998C26.4834 13.8831 26.575 14.1165 26.575 14.3998C26.575 14.6831 26.4834 14.9165 26.3 15.0998L21.4 19.9998L26.3 24.8998C26.4834 25.0831 26.575 25.3165 26.575 25.5998C26.575 25.8831 26.4834 26.1165 26.3 26.2998C26.1167 26.4831 25.8834 26.5748 25.6 26.5748C25.3167 26.5748 25.0834 26.4831 24.9 26.2998L20 21.3998Z" fill="black"/>
</g>
<defs>
<filter id="filter0_d_3_1628" x="0" y="0" width="40" height="40" filterUnits="userSpaceOnUse" color-interpolation-filters="sRGB">
<feFlood flood-opacity="0" result="BackgroundImageFix"/>
<feColorMatrix in="SourceAlpha" type="matrix" values="0 0 0 0 0 0 0 0 0 0 0 0 0 0 0 0 0 0 127 0" result="hardAlpha"/>
<feOffset/>
<feGaussianBlur stdDeviation="4"/>
<feComposite in2="hardAlpha" operator="out"/>
<feColorMatrix type="matrix" values="0 0 0 0 0 0 0 0 0 0 0 0 0 0 0 0 0 0 0.1 0"/>
<feBlend mode="normal" in2="BackgroundImageFix" result="effect1_dropShadow_3_1628"/>
<feBlend mode="normal" in="SourceGraphic" in2="effect1_dropShadow_3_1628" result="shape"/>
</filter>
</defs>
</svg>
